<?xml version="1.0" standalone="no"?>
<!DOCTYPE svg PUBLIC "-//W3C//DTD SVG 20010904//EN"
 "http://www.w3.org/TR/2001/REC-SVG-20010904/DTD/svg10.dtd">
<svg version="1.0" xmlns="http://www.w3.org/2000/svg"
 width="400.000000pt" height="400.000000pt" viewBox="0 0 400.000000 400.000000"
 preserveAspectRatio="xMidYMid meet">

<g transform="translate(0.000000,400.000000) scale(0.100000,-0.100000)"
fill="#000000" stroke="none">
<path d="M475 3724 c-11 -8 -25 -12 -31 -10 -7 3 -20 -4 -30 -15 -10 -11 -24
-17 -31 -15 -7 3 -12 2 -11 -2 2 -4 -10 -20 -26 -37 -16 -16 -26 -23 -21 -15
5 8 4 12 0 7 -5 -4 -10 -13 -11 -20 -1 -7 -13 -34 -25 -62 l-23 -50 -3 -930
c-2 -800 6 -1594 18 -1660 2 -11 10 -26 17 -35 7 -8 13 -19 15 -25 3 -13 55
-58 87 -76 49 -26 86 -35 175 -39 108 -6 2584 -7 2670 -1 48 3 71 11 115 39
30 20 59 35 63 34 5 -1 6 2 3 7 -4 5 -1 13 7 18 7 4 21 21 31 37 17 27 20 65
28 410 5 210 8 799 6 1311 l-3 930 -27 50 c-35 66 -84 121 -104 117 -10 -2
-13 1 -9 8 3 6 3 9 -2 8 -4 -1 -28 3 -53 10 -36 10 -336 12 -1427 10 -759 -2
-1379 0 -1376 5 6 10 1 8 -22 -9z m837 -521 c17 -8 30 -24 34 -41 3 -15 8 -34
11 -42 10 -25 10 -50 1 -50 -4 0 -7 -3 -6 -7 4 -13 -24 -73 -31 -68 -4 2 -8
-1 -8 -8 0 -18 -33 -67 -46 -67 -6 0 -8 -3 -5 -6 4 -3 -8 -31 -26 -62 -40 -71
-76 -148 -76 -162 0 -6 -4 -9 -9 -5 -6 3 -8 -4 -6 -15 2 -11 0 -20 -4 -20 -4
0 -8 -6 -9 -12 -5 -67 -16 -128 -22 -128 -9 0 -6 -97 3 -120 3 -8 8 -31 12
-50 3 -19 7 -42 8 -50 2 -9 6 -20 9 -25 9 -16 -9 -53 -32 -65 -28 -15 -32 -3
-71 190 -28 142 43 354 211 624 38 63 47 84 39 98 -5 10 -14 18 -20 18 -6 0
-8 4 -5 9 3 4 -7 8 -23 7 -21 -1 -41 -16 -79 -57 -29 -31 -52 -62 -52 -68 0
-6 -4 -11 -8 -11 -5 0 -13 -10 -19 -23 -11 -24 -112 -171 -138 -199 -8 -10
-15 -21 -15 -25 -1 -5 -10 -21 -20 -38 -11 -16 -25 -39 -32 -50 -7 -11 -17
-23 -21 -26 -5 -3 -7 -9 -5 -11 1 -3 -12 -28 -29 -56 -18 -27 -33 -59 -33 -70
0 -12 -4 -23 -9 -26 -5 -3 -12 -22 -16 -42 -3 -20 -13 -47 -21 -59 -8 -12 -11
-24 -8 -28 4 -3 3 -14 -1 -24 -4 -10 -7 -29 -6 -42 2 -16 -1 -21 -10 -16 -8 5
-10 4 -5 -3 4 -7 4 -18 0 -24 -5 -7 -9 -29 -11 -48 -1 -19 -5 -59 -8 -89 -22
-184 -21 -315 1 -316 5 -1 18 -6 30 -12 11 -7 56 -26 100 -43 43 -17 93 -37
111 -45 54 -26 63 -21 63 34 0 53 9 65 55 77 41 10 122 57 170 98 22 19 43 32
47 29 5 -2 7 1 6 9 -2 7 3 12 10 10 8 -1 11 2 7 8 -3 5 0 13 8 16 19 7 74 84
103 145 18 37 22 54 15 72 -16 42 -38 40 -90 -8 -26 -25 -52 -45 -58 -45 -5 0
-24 -16 -43 -35 -19 -20 -40 -33 -46 -31 -7 3 -15 -2 -18 -11 -4 -9 -13 -13
-22 -9 -8 3 -12 2 -9 -4 8 -13 -53 -22 -129 -18 -38 2 -68 -1 -70 -7 -2 -5 -7
3 -11 18 -10 38 6 52 63 54 26 1 57 2 69 2 44 2 130 49 174 94 72 75 107 97
157 97 53 0 82 -14 82 -41 0 -11 5 -17 10 -14 6 4 10 -15 10 -48 0 -41 -8 -71
-30 -116 -17 -34 -35 -61 -40 -61 -6 0 -10 -6 -10 -14 0 -7 -8 -20 -17 -27
-14 -12 -16 -12 -8 0 5 10 4 12 -4 7 -6 -4 -9 -11 -6 -15 7 -12 -83 -100 -155
-152 -38 -28 -70 -43 -84 -40 -14 3 -46 -41 -46 -63 0 -12 -4 -27 -9 -35 -6
-9 -3 -21 10 -34 23 -25 35 -99 21 -135 -6 -15 -14 -45 -18 -67 -4 -22 -13
-48 -20 -59 -7 -10 -10 -24 -7 -31 2 -8 -4 -26 -14 -41 -11 -17 -13 -25 -5
-20 11 7 12 4 3 -13 -7 -11 -17 -21 -23 -21 -6 0 -8 -3 -5 -7 9 -9 -31 -36
-42 -28 -5 3 -12 1 -15 -3 -3 -5 -19 -9 -36 -10 -20 0 -28 3 -24 10 5 8 1 9
-10 5 -10 -4 -27 -2 -39 5 -12 7 -31 13 -41 15 -11 2 -25 8 -32 14 -7 6 -25
12 -41 14 -15 2 -46 12 -68 21 -22 10 -43 18 -47 18 -3 1 -10 4 -14 9 -4 4
-14 7 -22 7 -29 0 -82 33 -101 64 -29 46 -31 75 -9 136 11 30 21 66 23 80 2
14 4 25 5 25 1 0 3 8 6 18 2 9 6 23 8 30 2 6 7 27 11 45 4 17 11 32 16 32 5 0
8 4 6 9 -1 4 8 17 21 27 20 17 23 30 26 109 5 131 25 326 35 339 4 6 9 18 10
26 1 19 9 63 11 70 1 3 2 9 1 14 -3 15 30 121 46 145 9 15 10 21 3 16 -11 -7
36 91 50 105 3 3 18 30 34 60 16 30 35 62 42 71 8 8 14 19 14 24 0 4 12 24 28
44 15 19 34 50 43 68 8 18 18 30 22 26 4 -3 7 1 7 10 0 10 9 26 19 36 11 11
21 27 23 38 2 10 9 17 16 16 6 -2 9 4 6 12 -3 8 3 19 15 27 12 7 21 17 21 22
0 5 17 27 38 50 21 22 44 51 53 63 29 42 113 55 171 26z m1312 -20 c22 -21 47
-51 58 -68 10 -16 18 -25 18 -20 0 6 9 -3 19 -19 11 -17 17 -34 14 -39 -3 -6
-1 -7 4 -4 6 4 14 -1 18 -11 3 -9 5 -17 3 -17 -2 0 9 -14 24 -30 15 -16 25
-32 23 -36 -3 -4 2 -9 10 -13 8 -3 15 -12 15 -20 0 -8 3 -16 8 -18 10 -4 52
-65 52 -77 0 -5 7 -11 15 -15 8 -3 15 -12 15 -21 0 -9 11 -28 25 -42 13 -15
30 -41 37 -57 6 -17 14 -33 18 -36 24 -21 85 -168 93 -226 3 -17 9 -40 15 -50
11 -22 22 -83 24 -136 1 -21 4 -38 8 -38 3 0 6 -19 5 -42 0 -24 3 -45 7 -48 5
-4 18 -164 22 -287 1 -11 4 -19 7 -17 14 8 40 -24 46 -56 3 -19 8 -37 12 -40
8 -5 21 -50 24 -85 1 -11 8 -26 15 -33 6 -7 12 -21 13 -30 0 -9 2 -46 3 -82 4
-69 -11 -110 -40 -110 -8 0 -17 -6 -20 -14 -3 -7 -24 -19 -47 -26 -23 -8 -46
-17 -52 -22 -5 -4 -16 -8 -25 -8 -10 0 -31 -7 -49 -16 -18 -9 -41 -14 -51 -11
-11 3 -20 1 -22 -4 -4 -13 -118 -58 -146 -59 -12 0 -40 9 -60 19 -37 19 -65
63 -76 121 -2 14 -12 52 -22 85 -24 77 -24 181 -1 216 13 20 15 32 7 58 -5 18
-8 38 -7 44 1 6 -5 12 -13 13 -8 0 -24 2 -34 2 -11 1 -16 5 -13 8 4 4 -16 17
-44 30 -54 25 -244 208 -234 225 4 5 2 9 -3 9 -14 0 -51 73 -58 116 -6 43 10
119 28 130 7 5 9 2 4 -7 -4 -8 -1 -6 7 4 10 12 29 17 64 17 48 0 54 -3 114
-60 35 -33 67 -60 72 -60 4 0 6 -4 3 -9 -5 -7 31 -30 45 -27 3 0 13 -5 22 -13
10 -7 17 -10 17 -7 0 4 10 2 21 -5 12 -6 54 -14 93 -18 64 -5 71 -8 74 -28 2
-14 -2 -24 -10 -24 -13 -2 -40 -6 -68 -11 -37 -7 -140 14 -149 30 -6 9 -11 14
-11 10 0 -11 -55 24 -97 63 -104 94 -142 115 -159 87 -5 -7 -2 -9 7 -4 8 4 6
1 -5 -8 -13 -10 -16 -21 -11 -33 5 -10 9 -20 10 -23 35 -102 179 -261 282
-310 26 -13 51 -24 55 -24 3 -1 10 -4 14 -8 4 -5 18 -8 30 -8 30 0 32 -6 35
-73 2 -59 11 -68 38 -43 9 8 28 17 42 19 15 3 35 10 45 16 11 5 48 21 82 34
35 14 76 34 90 44 27 20 27 21 25 138 -1 64 -7 140 -12 169 -6 28 -13 74 -16
103 -3 29 -12 78 -21 110 -9 32 -20 74 -24 93 -5 19 -16 51 -24 71 -8 20 -13
39 -10 41 2 3 -2 11 -11 18 -8 7 -15 16 -15 20 0 5 -16 32 -35 61 -19 30 -35
57 -35 61 0 10 -67 114 -91 143 -9 11 -25 36 -35 55 -11 19 -29 45 -42 58 -13
13 -20 28 -16 35 4 7 4 9 -1 5 -7 -7 -48 45 -50 62 0 3 -23 29 -51 58 -50 52
-79 63 -102 40 -14 -14 -16 -94 -3 -103 12 -7 61 -80 81 -120 8 -16 17 -32 20
-35 3 -3 26 -45 51 -95 43 -85 76 -172 78 -205 9 -154 9 -200 1 -205 -6 -4 -7
-11 -4 -17 7 -11 -24 -126 -38 -142 -14 -16 -36 -15 -52 3 -14 16 -14 23 6 77
27 76 29 222 4 309 -20 69 -96 230 -138 292 -15 23 -28 45 -28 50 0 4 -14 28
-30 52 -25 37 -30 54 -30 103 0 54 3 63 31 89 26 24 40 29 83 29 46 0 56 -4
90 -37z m-561 -62 c5 -5 16 -7 23 -4 8 3 20 1 27 -5 6 -5 27 -13 46 -17 18 -4
49 -18 68 -31 19 -13 44 -26 56 -30 12 -4 32 -19 45 -33 52 -59 81 -99 76
-104 -3 -3 4 -10 15 -17 12 -6 21 -16 21 -23 0 -8 -3 -8 -8 -2 -4 6 -18 12
-31 12 -13 1 -27 6 -30 11 -3 5 -26 13 -51 17 -25 4 -57 14 -73 21 -15 8 -26
11 -25 7 3 -8 -19 -38 -93 -130 -38 -47 -40 -60 -12 -113 7 -14 13 -29 13 -35
0 -5 13 -41 28 -80 31 -75 61 -102 147 -127 22 -6 47 -17 56 -25 9 -7 18 -10
22 -7 3 3 14 1 24 -6 10 -6 12 -10 3 -7 -8 2 -26 -2 -39 -9 -14 -7 -28 -11
-33 -8 -4 3 -8 0 -8 -5 0 -6 -8 -11 -17 -11 -22 1 -125 45 -119 51 2 2 -6 4
-19 4 -13 0 -22 -2 -21 -5 2 -3 -13 -18 -33 -35 -21 -17 -30 -21 -21 -10 8 11
-11 -6 -42 -39 -36 -38 -60 -56 -69 -51 -7 5 -10 4 -6 -2 8 -13 -16 -35 -33
-31 -16 4 -17 -7 -26 -174 -5 -104 -4 -138 5 -138 7 0 23 -11 37 -25 13 -13
26 -24 29 -22 2 1 14 -6 25 -15 11 -10 25 -18 31 -18 5 0 8 -4 5 -9 -3 -5 15
-16 41 -26 39 -15 49 -16 67 -5 19 12 69 40 135 76 21 11 27 10 48 -9 12 -12
23 -25 23 -29 0 -12 -77 -48 -85 -40 -5 4 -5 2 -1 -5 4 -8 -2 -15 -19 -19 -14
-3 -25 -10 -25 -14 0 -9 -61 -36 -73 -32 -5 1 -6 -2 -2 -8 3 -5 -1 -13 -9 -16
-9 -3 -14 -10 -11 -14 7 -11 -25 -90 -36 -90 -5 0 -9 -4 -9 -9 0 -20 214 73
240 104 7 8 16 15 21 15 5 0 23 12 40 28 44 38 78 35 79 -8 0 -33 -223 -183
-270 -181 -3 0 -14 -6 -25 -13 -11 -7 -31 -16 -45 -19 -14 -3 -51 -12 -83 -20
-51 -13 -56 -13 -45 1 11 13 10 14 -9 4 -24 -13 -234 -21 -226 -9 2 4 -8 5
-23 1 -18 -5 -25 -3 -20 4 4 6 -2 8 -15 5 -11 -3 -30 -1 -42 5 -12 6 -37 13
-55 16 -45 8 -182 75 -189 92 -3 8 -9 12 -13 9 -4 -2 -18 5 -32 18 -13 12 -27
23 -31 24 -16 3 -23 9 -51 40 l-29 32 24 20 c24 19 24 19 45 0 11 -10 24 -19
28 -19 5 0 16 -8 25 -18 20 -22 134 -92 150 -92 7 0 9 -5 5 -12 -4 -6 -3 -8 3
-5 5 3 33 -3 62 -13 l52 -20 -16 30 c-9 16 -13 30 -10 30 4 0 -1 7 -9 16 -9 8
-16 21 -16 28 0 24 -43 62 -80 70 -10 3 -56 29 -102 59 -48 30 -48 30 -26 46
30 21 54 23 70 8 7 -6 20 -13 28 -15 8 -2 21 -10 28 -19 6 -9 12 -13 12 -9 0
4 15 -1 33 -10 67 -35 69 -36 62 -23 -5 7 -3 10 5 7 7 -2 26 9 42 24 17 15 35
28 42 28 6 0 23 11 37 24 29 27 70 51 82 48 4 -1 6 63 5 142 -2 79 -6 142 -10
139 -5 -2 -8 3 -8 12 0 9 -5 13 -10 10 -6 -3 -13 0 -16 8 -3 8 -15 17 -26 20
-13 4 -17 10 -12 18 4 7 3 10 -4 5 -6 -3 -18 4 -26 16 -9 12 -16 19 -16 15 0
-5 -14 1 -30 13 -17 12 -28 25 -25 30 3 5 0 12 -6 16 -8 5 -10 2 -5 -7 4 -8
-5 0 -21 17 -18 21 -35 31 -48 28 -11 -2 -28 -5 -37 -6 -9 -1 -15 -5 -13 -8 2
-4 -19 -15 -46 -24 -48 -18 -52 -18 -90 -1 -21 10 -39 21 -39 25 0 11 30 21
41 14 5 -3 9 0 9 5 0 6 9 11 20 11 11 0 20 5 20 10 0 6 6 10 14 10 8 0 27 5
43 12 15 6 32 10 36 9 15 -3 34 25 41 61 4 21 13 44 21 51 8 8 12 17 9 20 -3
3 0 16 7 29 7 12 12 26 11 31 -1 4 2 7 6 7 5 0 9 6 10 13 9 78 9 98 0 103 -7
5 -8 2 -4 -7 4 -8 -3 0 -16 16 -13 17 -38 46 -55 66 -18 20 -29 40 -25 44 4 5
2 5 -5 2 -6 -4 -13 -2 -15 3 -3 11 -48 0 -94 -22 -12 -6 -37 -11 -55 -13 -19
-2 -34 -7 -33 -12 0 -4 -10 -18 -23 -30 -12 -12 -23 -20 -23 -18 0 8 65 100
73 103 4 2 7 9 7 16 0 45 134 143 221 161 19 4 39 11 44 15 6 4 32 11 60 15
27 3 51 8 53 10 8 8 286 -5 295 -14z m512 -585 c4 -36 4 -89 0 -118 -3 -29 -8
-63 -9 -76 -5 -35 -11 -36 -57 -11 -50 28 -61 49 -27 50 22 0 22 1 3 9 -14 6
-15 9 -5 9 16 1 40 52 40 83 0 9 8 33 17 54 9 22 16 45 14 52 -1 6 2 12 8 12
5 0 13 -29 16 -64z m-1359 35 c-3 -5 1 -15 10 -22 10 -8 13 -21 9 -37 -3 -13
-2 -21 4 -18 10 7 24 -40 16 -54 -4 -6 -1 -10 5 -10 6 0 10 -10 8 -22 -2 -16
3 -24 17 -26 33 -6 37 -18 10 -30 -21 -10 -25 -10 -20 0 4 7 -5 -2 -20 -19
-14 -18 -30 -33 -35 -33 -14 0 -32 128 -27 194 5 61 12 86 23 86 3 0 3 -4 0
-9z m1234 -191 c0 -5 -5 -10 -11 -10 -5 0 -7 5 -4 10 3 6 8 10 11 10 2 0 4 -4
4 -10z m-1093 -6 c-3 -3 -12 -4 -19 -1 -8 3 -5 6 6 6 11 1 17 -2 13 -5z"/>
<path d="M1304 2178 l-19 -23 23 19 c21 18 27 26 19 26 -2 0 -12 -10 -23 -22z"/>
<path d="M610 1709 c0 -16 -4 -28 -9 -25 -4 3 -6 -5 -4 -18 3 -13 0 -27 -6
-30 -6 -4 -11 -21 -11 -37 0 -17 -4 -28 -10 -24 -5 3 -7 0 -4 -9 3 -8 0 -24
-6 -36 -15 -28 -15 -96 0 -115 6 -7 28 -19 48 -25 20 -6 51 -17 67 -25 17 -7
44 -18 60 -25 17 -7 39 -16 50 -21 11 -5 47 -16 80 -25 33 -9 65 -20 71 -25 7
-6 20 -2 35 11 13 10 21 19 18 20 -4 0 0 26 8 58 8 31 17 68 20 82 2 14 6 30
8 35 1 6 3 12 3 15 0 3 6 18 12 34 14 38 -6 71 -46 74 -15 1 -31 7 -35 13 -3
6 -9 10 -13 10 -23 -3 -36 0 -31 9 3 5 0 7 -8 4 -8 -3 -34 4 -58 14 -24 11
-75 32 -114 46 -38 15 -78 31 -87 36 -29 16 -38 11 -38 -21z"/>
<path d="M3125 1724 c-11 -8 -28 -13 -37 -10 -10 2 -18 1 -18 -3 0 -10 -61
-31 -71 -25 -5 3 -9 1 -9 -4 0 -5 -21 -15 -47 -21 -27 -7 -56 -17 -65 -22 -10
-5 -25 -9 -33 -9 -8 0 -15 -4 -15 -10 0 -5 -3 -9 -7 -8 -5 1 -21 -4 -38 -11
-16 -6 -36 -14 -44 -16 -10 -4 -12 -17 -6 -53 4 -26 11 -54 15 -62 4 -8 11
-36 15 -63 4 -26 11 -50 16 -53 5 -3 9 -15 9 -27 0 -12 7 -31 15 -42 15 -19
16 -19 78 2 112 38 268 98 317 123 35 17 34 53 -5 194 -21 75 -40 136 -44 136
-3 0 -15 -7 -26 -16z"/>
<path d="M1815 3068 c-33 -4 -80 -11 -105 -17 -25 -5 -48 -7 -52 -5 -8 5 -58
-53 -58 -68 0 -19 36 -71 90 -129 l55 -59 143 -3 c136 -3 144 -2 154 17 6 12
25 35 42 52 70 70 107 124 85 124 -6 0 -7 5 -3 12 4 6 3 8 -3 5 -10 -7 -28 8
-35 28 -1 6 -7 9 -11 7 -4 -1 -18 3 -30 10 -12 7 -30 11 -39 9 -10 -1 -18 2
-18 7 0 5 -15 8 -34 7 -19 0 -33 2 -31 5 5 8 -76 7 -150 -2z"/>
<path d="M1733 2692 c0 -14 -6 -28 -12 -30 -6 -2 -9 -8 -6 -12 3 -5 -9 -43
-26 -84 -28 -67 -30 -79 -19 -105 7 -17 15 -29 19 -28 7 2 11 -1 89 -68 29
-25 57 -45 62 -45 6 0 10 -6 10 -14 0 -22 65 -12 93 13 106 100 154 141 165
141 9 0 9 8 -2 35 -8 19 -12 35 -9 35 3 0 0 6 -6 13 -6 8 -8 17 -4 20 3 4 1 7
-6 7 -8 0 -11 7 -7 15 3 8 1 15 -4 15 -5 0 -14 19 -21 42 -21 78 -18 77 -176
76 l-140 0 0 -26z"/>
</g>
</svg>
